<?xml version="1.0" encoding="utf-8"?>
<!-- Generator: Adobe Illustrator 15.0.2, SVG Export Plug-In . SVG Version: 6.00 Build 0)  -->
<!DOCTYPE svg PUBLIC "-//W3C//DTD SVG 1.1//EN" "http://www.w3.org/Graphics/SVG/1.1/DTD/svg11.dtd">
<svg version="1.1" id="レイヤー_1" xmlns="http://www.w3.org/2000/svg" xmlns:xlink="http://www.w3.org/1999/xlink" x="0px"
	 y="0px" width="300" height="145" viewBox="0 0 78 38" enable-background="new 0 0 78 38" xml:space="preserve">
<g>
	<g>
		<g>
			<g>
				<g>
					<g>
						<g>
							<g>
								<path fill="#FF0000" d="M32.254,5.217c-0.573-0.507-1.498-0.811-2.413-0.814c-2.188-0.006-3.973,1.72-3.979,3.949
									c-0.006,2.189,1.792,3.924,3.979,3.93c1.231,0.004,2.296-0.493,3.026-1.371V8.737c-0.387,0.678-1.172,1.539-1.88,1.834
									c-0.355,0.148-0.722,0.242-1.146,0.242c-1.366,0-2.492-1.061-2.492-2.461c0-1.29,1.037-2.483,2.492-2.479
									c0.683,0.002,1.296,0.284,1.749,0.725c0.469,0.456,1.2,1.406,1.549,1.781c0.89,0.958,2.169,1.557,3.579,1.562
									c2.701,0.008,4.896-2.181,4.896-4.877c0-2.702-2.199-4.944-4.896-4.944c-1.571,0-2.952,0.818-3.851,1.966v2.937
									c0.684-1.864,1.916-3.351,3.851-3.351c1.858,0,3.365,1.535,3.358,3.393c-0.005,1.858-1.5,3.36-3.358,3.355
									c-0.827-0.002-1.597-0.302-2.182-0.798C33.812,7.052,33.008,5.852,32.254,5.217"/>
							</g>
						</g>
					</g>
				</g>
				<path fill="#FF0000" d="M0.143,13.376h10.818v3.013c0,0-0.554-1.187-1.726-1.189H4.229v5.198h5.428v2.757
					c0,0-0.174-0.879-1.484-0.881H4.229v7.103c-0.002,1.049,1.134,1.669,1.134,1.669h-5.15c0,0,1.081-0.546,1.081-1.669V15.228
					C1.296,14.042,0.143,13.376,0.143,13.376z"/>
				<path fill="#FF0000" d="M27.338,13.383h5.504c0,0-1.233,0.584-1.233,1.538v16.574c0,5.603-5.617,6.521-5.91,6.505
					c0.479-0.307,2.812-2.295,2.821-6.505V14.921C28.522,14.023,27.338,13.383,27.338,13.383z"/>
				<path fill="#FF0000" d="M33.618,13.381h5.521c0,0-1.227,0.588-1.227,1.563v14.438c0,1.033,1.227,1.678,1.227,1.678h-5.521
					c0,0,1.226-0.641,1.226-1.678V14.943C34.844,13.969,33.618,13.381,33.618,13.381z"/>
				<path fill="#FF0000" d="M40.243,13.38h12.148l-1.031,3.209c0,0-0.309-1.349-1.481-1.348h-2.521v14.138
					c0,0.895,1.186,1.67,1.186,1.67h-5.408c0,0,1.173-0.698,1.173-1.67V15.241h-3.042c-0.865,0-2.101,1.617-2.101,1.617
					L40.243,13.38z"/>
				<path fill="#FF0000" d="M72.681,13.381H78c0,0-1.138,0.604-1.14,1.559v10.699c-0.005,4.348-3.608,5.686-6.105,5.686
					c-2.482,0-6.373-1.354-6.368-5.686V14.939c0.003-0.955-1.171-1.559-1.171-1.559h5.474c0,0-1.22,0.586-1.22,1.559v10.699
					c0,2.28,1.513,3.773,3.285,3.773c1.771,0,3.124-1.553,3.127-3.773V14.939C73.883,13.984,72.681,13.381,72.681,13.381z"/>
				<path fill="#FF0000" d="M20.964,13.381h5.417c0,0-1.151,0.628-1.151,1.577c0,0.004-0.001,10.673-0.001,10.673
					c0,4.367-3.774,5.74-6.3,5.74c-2.481,0-6.369-1.395-6.369-5.74l-0.006-10.673c0-0.955-1.105-1.577-1.105-1.577h5.473
					c0,0-1.265,0.624-1.265,1.577l-0.005,10.673c0,2.261,1.505,3.819,3.278,3.829c1.773,0.008,3.195-1.591,3.195-3.829l0.007-10.673
					C22.131,14.002,20.964,13.381,20.964,13.381z"/>
				<path fill="#FF0000" d="M61.587,16.208c0,0-0.767-1.344-2.985-1.351c-2.222-0.007-3.428,1.161-3.432,2.673
					c-0.005,1.711,1.281,2.358,3.274,3.314c1.894,0.909,4.742,2.167,4.732,5.327c-0.008,2.837-2.521,5.205-7.03,5.205
					c-1.388-0.003-3.304-0.457-3.304-0.457l-1.033-3.394c0.955,0.928,2.647,1.924,4.39,1.924c1.801,0,3.956-1.113,3.956-2.902
					c0-3.455-8.038-2.877-8.038-8.657c0-1.988,1.387-4.869,6.181-4.869c1.557,0,3.291,0.457,3.291,0.457L61.587,16.208z"/>
			</g>
		</g>
	</g>
</g>
</svg>
